<?xml version="1.0" encoding="UTF-8"?>
<svg version="1.1" viewBox="0 0 20 20" xmlns="http://www.w3.org/2000/svg">
  <title>bitcoin</title>
  <g transform="translate(-280 -840)" fill="none" fill-rule="evenodd">
    <g transform="translate(250 740)" fill-rule="nonzero">
      <g transform="translate(30 100)">
        <path id="a" d="m19.701 12.419c-1.3358 5.3571-6.7623 8.6174-12.121 7.2815-5.3562-1.3356-8.6169-6.7618-7.2805-12.119 1.3351-5.3578 6.7617-8.6184 12.118-7.2827 5.3581 1.3356 8.6184 6.7624 7.2827 12.12z" fill="#F7931A" />
        <path d="m13.976 7.8242c0.18727-1.2609-0.76583-1.9388-2.0691-2.3909l0.42275-1.7081-1.0322-0.25911-0.41158 1.6631c-0.27135-0.068109-0.55004-0.13237-0.82697-0.19604l0.41452-1.674-1.0316-0.25911-0.42304 1.7075c-0.2246-0.051526-0.44509-0.10246-0.65911-0.15606l0.0011759-0.0053303-1.4235-0.35802-0.27458 1.1105s0.76583 0.17679 0.74966 0.18775c0.41804 0.10513 0.4936 0.38378 0.48096 0.60469l-0.48154 1.9459c0.02881 0.0074032 0.066146 0.018064 0.1073 0.034647-0.034396-0.0085877-0.071144-0.018064-0.10907-0.027244l-0.67499 2.7259c-0.051153 0.12793-0.1808 0.31982-0.47302 0.24697 0.010289 0.015103-0.75024-0.18863-0.75024-0.18863l-0.51241 1.1901 1.3432 0.33729c0.24989 0.063075 0.49477 0.12911 0.73584 0.1913l-0.42716 1.7276 1.031 0.25911 0.42304-1.7093c0.28164 0.076993 0.55504 0.14806 0.82256 0.21499l-0.42157 1.7013 1.0322 0.25911 0.42716-1.7244c1.7601 0.33551 3.0836 0.20018 3.6407-1.4034 0.44891-1.2911-0.022343-2.0359-0.94839-2.5215 0.6744-0.15665 1.1824-0.60351 1.3179-1.5265zm-2.3583 3.3311c-0.31897 1.2911-2.4771 0.59314-3.1768 0.41813l0.5668-2.2888c0.69968 0.1759 2.9434 0.52415 2.61 1.8706zm0.31927-3.3498c-0.29104 1.1744-2.0873 0.57775-2.67 0.43146l0.51388-2.0759c0.58267 0.14629 2.4592 0.41932 2.1561 1.6444z" fill="#fff" />
      </g>
    </g>
  </g>
</svg>