<svg id="wordmark" width="2000px" height="484px" viewBox="0 0 2000 484" version="1.1" xmlns="http://www.w3.org/2000/svg" xmlns:xlink="http://www.w3.org/1999/xlink">
    <title>Buycoins Wordmark</title>
    <g stroke="none" stroke-width="1" fill="none" fill-rule="evenodd">
        <g class="fill" fill="#B38CFC" fill-rule="nonzero">
            <polygon id="Path" points="726.91785 364.876 686.27232 483.687 625.304 483.687 662.302 377.38248 566.4195 114.74772 631.5566 114.74772 692.52617 295.04885 752.97317 114.74772 818.63152 114.74772"></polygon>
            <path d="M816.49258,246.06507 C816.49258,171.02659 868.08202,110.57892 949.89434,110.57892 C1016.07524,110.57892 1069.74844,150.18256 1075.47974,210.63023 L1011.90643,210.63023 C1007.21637,184.57488 981.68228,165.8159 951.45812,165.8159 C907.16505,165.8159 883.19346,200.20822 883.19346,246.06507 C883.19346,291.92192 907.68631,326.31425 952.50064,326.31425 C982.7248,326.31425 1006.17384,309.11841 1012.42769,283.06306 L1077.04353,283.06306 C1068.70592,340.38444 1017.63774,381.55123 949.89434,381.55123 C868.082,381.55123 816.49258,321.10356 816.49258,246.06507 Z" id="Path"></path>
            <path d="M1460.78365,0 L1460.78365,72.95408 L1396.68779,72.95408 L1396.68779,0 L1460.78365,0 Z M1396.68779,114.12087 L1460.78365,114.12087 L1460.78365,376.75557 L1396.68779,376.75557 L1396.68779,114.12087 Z" id="Shape"></path>
            <path d="M1789.47472,289.21067 L1847.838,289.21067 C1850.44431,314.2235 1869.72455,329.8562 1898.38492,329.8562 C1923.39775,329.8562 1940.07292,317.34978 1940.07292,301.71709 C1940.07292,243.35382 1796.2498,299.11142 1796.2498,188.11684 C1796.2498,142.25998 1836.37406,109.95207 1890.56852,109.95207 C1952.05936,109.95207 1994.26738,143.82377 1996.87369,194.8913 L1938.51042,194.8913 C1934.86288,170.39974 1912.45507,157.8933 1892.13231,157.8933 C1869.20324,157.8933 1854.0918,168.3153 1854.0918,186.03306 C1854.0918,242.83254 1999.99997,180.30047 1999.99997,299.1114 C1999.99997,348.6164 1959.87571,380.9244 1898.38487,380.9244 C1834.81159,380.9244 1792.60228,345.48954 1789.47472,289.21067 Z" id="Path"></path>
            <path d="M63.57459,344.55325 L63.57459,377.38243 L0,377.38243 L0,2.19 L63.57459,2.19 L63.57459,146.535 C78.68603,125.16972 106.30516,110.5789 140.69684,110.5789 C218.34163,110.5789 264.71975,165.8159 264.71975,246.06505 C264.71975,326.3142 218.34163,381.55123 139.6556,381.55123 C107.86766,381.55123 78.686,367.48168 63.57459,344.55325 Z M201.14515,246.06507 C201.14515,197.60256 173.00604,165.8159 130.27547,165.8159 C87.5449,165.8159 59.40579,197.60256 59.40579,246.06507 C59.40579,294.52758 87.5449,326.31425 130.27547,326.31425 C173.00604,326.31425 201.14515,294.52759 201.14515,246.06507 Z" id="Shape"></path>
            <path d="M543.6047,375.29857 L479.50884,375.29857 L479.50884,334.653 C464.91867,363.31337 435.21578,379.46733 397.69653,379.46733 C338.29074,379.46733 299.72898,336.73676 299.72898,275.24721 L299.72898,112.66386 L363.82483,112.66386 L363.82483,261.69831 C363.82483,297.65442 385.71009,322.66724 418.54056,322.66724 C454.49602,322.66724 479.50884,294.52813 479.50884,255.96637 L479.50884,112.66386 L543.6047,112.66386 L543.6047,375.29857 Z" id="Path"></path>
            <path d="M1510.853,116.83267 L1574.94886,116.83267 L1574.94886,157.47819 C1589.53903,128.81782 1619.24193,112.66386 1656.76117,112.66386 C1716.16696,112.66386 1754.72872,155.39443 1754.72872,216.88398 L1754.72872,379.46737 L1690.63287,379.46737 L1690.63287,230.43292 C1690.63287,194.47682 1668.74632,169.46399 1635.91714,169.46399 C1599.96168,169.46399 1574.94886,197.6031 1574.94886,236.16487 L1574.94886,379.46737 L1510.853,379.46737 L1510.853,116.83267 Z" id="Path"></path>
            <g id="Group" transform="translate(1101.000000, 101.000000)">
                <path d="M174.51688,6.64021 C108.98819,-12.83218 42.18626,17.4206 25.31001,74.21171 C21.7169332,86.4730185 20.653825,99.3367625 22.18526,112.02158 C50.56649,77.77232 102.29461,62.65495 153.36193,77.83041 C204.42874,93.00548 239.50715,133.91846 244.57916,178.10882 C252.789137,168.318801 258.923427,156.962105 262.60946,144.72849 C279.48571,87.93737 240.04507,26.113 174.51688,6.64021 Z" id="Path"></path>
                <path d="M113.40249,212.3 C62.33518,197.12494 27.25727,156.21156 22.18526,112.0216 C13.9752094,121.811418 7.84090751,133.168 4.15496,145.40153 C-12.72129,202.19304 26.71885,264.017 92.24754,283.4898 C157.77573,302.96259 224.57816,272.70941 241.45441,215.9183 C245.047486,203.657132 246.110595,190.793522 244.57916,178.10884 C216.19783,212.35767 164.46931,227.47505 113.40249,212.3 Z" id="Path"></path>
            </g>
        </g>
    </g>
</svg>