<svg width="22" height="22" viewBox="0 0 22 22" fill="none" xmlns="http://www.w3.org/2000/svg">
<path d="M21.6564 20.5517L15.7564 14.6517C17.1742 12.9496 17.8812 10.7664 17.7303 8.55628C17.5795 6.34618 16.5823 4.27932 14.9464 2.78566C13.3104 1.29201 11.1616 0.48657 8.94695 0.536892C6.73227 0.587213 4.62226 1.48942 3.05584 3.05584C1.48942 4.62226 0.587213 6.73227 0.536892 8.94695C0.48657 11.1616 1.29201 13.3104 2.78566 14.9464C4.27932 16.5823 6.34618 17.5795 8.55628 17.7303C10.7664 17.8812 12.9496 17.1742 14.6517 15.7564L20.5517 21.6564L21.6564 20.5517ZM2.12511 9.15636C2.12511 7.76571 2.53748 6.40629 3.31009 5.25C4.08269 4.09372 5.18082 3.19251 6.46561 2.66033C7.75041 2.12815 9.16416 1.98891 10.5281 2.26021C11.892 2.53151 13.1449 3.20117 14.1282 4.18451C15.1115 5.16785 15.7812 6.4207 16.0525 7.78463C16.3238 9.14856 16.1846 10.5623 15.6524 11.8471C15.1202 13.1319 14.219 14.23 13.0627 15.0026C11.9064 15.7752 10.547 16.1876 9.15636 16.1876C7.29219 16.1855 5.50496 15.4441 4.18679 14.1259C2.86863 12.8077 2.12717 11.0205 2.12511 9.15636Z" fill="#8692A6"/>
</svg>
